<svg width="10" height="10" viewBox="0 0 10 10" fill="none" xmlns="http://www.w3.org/2000/svg">
<path d="M7.854 3.854C7.94789 3.76011 8.00063 3.63278 8.00063 3.5C8.00063 3.36722 7.94789 3.23989 7.854 3.146C7.76011 3.05211 7.63278 2.99937 7.5 2.99937C7.36722 2.99937 7.23989 3.05211 7.146 3.146L4 6.293L2.854 5.146C2.76011 5.05211 2.63278 4.99937 2.5 4.99937C2.36722 4.99937 2.23989 5.05211 2.146 5.146C2.05211 5.23989 1.99937 5.36722 1.99937 5.5C1.99937 5.63278 2.05211 5.76011 2.146 5.854L3.646 7.354C3.69245 7.40056 3.74762 7.43751 3.80837 7.46271C3.86911 7.48792 3.93423 7.50089 4 7.50089C4.06577 7.50089 4.13089 7.48792 4.19163 7.46271C4.25238 7.43751 4.30755 7.40056 4.354 7.354L7.854 3.854V3.854ZM0 1.5C0 1.10218 0.158035 0.720644 0.43934 0.43934C0.720644 0.158035 1.10218 0 1.5 0H8.5C8.89782 0 9.27936 0.158035 9.56066 0.43934C9.84196 0.720644 10 1.10218 10 1.5V8.5C10 8.89782 9.84196 9.27936 9.56066 9.56066C9.27936 9.84196 8.89782 10 8.5 10H1.5C1.10218 10 0.720644 9.84196 0.43934 9.56066C0.158035 9.27936 0 8.89782 0 8.5V1.5ZM8.5 1H1.5C1.36739 1 1.24021 1.05268 1.14645 1.14645C1.05268 1.24021 1 1.36739 1 1.5V8.5C1 8.63261 1.05268 8.75979 1.14645 8.85355C1.24021 8.94732 1.36739 9 1.5 9H8.5C8.63261 9 8.75979 8.94732 8.85355 8.85355C8.94732 8.75979 9 8.63261 9 8.5V1.5C9 1.36739 8.94732 1.24021 8.85355 1.14645C8.75979 1.05268 8.63261 1 8.5 1Z" fill="#9DA1B4"/>
</svg>
